<?xml version="1.0" standalone="no"?>
<!DOCTYPE svg PUBLIC "-//W3C//DTD SVG 20010904//EN"
 "http://www.w3.org/TR/2001/REC-SVG-20010904/DTD/svg10.dtd">
<svg version="1.0" xmlns="http://www.w3.org/2000/svg"
 width="315.000000pt" height="315.000000pt" viewBox="0 0 315.000000 315.000000"
 preserveAspectRatio="xMidYMid meet">
<metadata>
Created by potrace 1.11, written by Peter Selinger 2001-2013
</metadata>
<g transform="translate(0.000000,315.000000) scale(0.100000,-0.100000)"
fill="#000000" stroke="none">
<path d="M184 1571 l1 -1196 63 0 62 -1 0 78 c0 67 2 78 18 79 9 0 360 1 779
1 l761 1 0 293 c0 162 -3 295 -7 295 -3 1 -352 2 -776 3 l-770 1 -3 78 -3 77
1338 0 1338 0 0 289 c0 159 -3 293 -7 297 -5 4 -606 7 -1336 7 l-1329 0 0 69
c0 40 4 71 11 75 6 4 488 8 1071 8 l1060 0 3 297 2 296 -1047 1 c-577 0 -1060
0 -1075 1 -27 0 -28 1 -27 58 2 98 7 91 -65 90 l-63 -1 1 -1196z"/>
</g>
</svg>
